<?xml version="1.0" encoding="UTF-8" standalone="no"?>
<!-- Created with Inkscape (http://www.inkscape.org/) -->

<svg
   width="55.761002"
   height="55.761002"
   viewBox="0 0 14.753431 14.753432"
   version="1.1"
   id="svg5"
   inkscape:version="1.2.2 (b0a8486, 2022-12-01)"
   sodipodi:docname="treble-clef-icon.svg"
   inkscape:export-filename="../../Projects/ensembles-web/src/image/treble-clef-512.png"
   inkscape:export-xdpi="881.47626"
   inkscape:export-ydpi="881.47626"
   xmlns:inkscape="http://www.inkscape.org/namespaces/inkscape"
   xmlns:sodipodi="http://sodipodi.sourceforge.net/DTD/sodipodi-0.dtd"
   xmlns="http://www.w3.org/2000/svg"
   xmlns:svg="http://www.w3.org/2000/svg">
  <sodipodi:namedview
     id="namedview7"
     pagecolor="#ffffff"
     bordercolor="#666666"
     borderopacity="1.0"
     inkscape:pageshadow="2"
     inkscape:pageopacity="0.0"
     inkscape:pagecheckerboard="0"
     inkscape:document-units="mm"
     showgrid="false"
     inkscape:zoom="6.3126493"
     inkscape:cx="29.227032"
     inkscape:cy="36.355576"
     inkscape:window-width="1312"
     inkscape:window-height="919"
     inkscape:window-x="294"
     inkscape:window-y="25"
     inkscape:window-maximized="0"
     inkscape:current-layer="layer2"
     showguides="true"
     inkscape:guide-bbox="true"
     fit-margin-top="30"
     fit-margin-left="30"
     fit-margin-right="30"
     fit-margin-bottom="30"
     units="px"
     inkscape:showpageshadow="2"
     inkscape:deskcolor="#d1d1d1">
    <sodipodi:guide
       position="4.021267,-62.970685"
       orientation="0,-1"
       id="guide50678"
       inkscape:locked="false" />
  </sodipodi:namedview>
  <defs
     id="defs2">
    <rect
       x="194.52841"
       y="598.11896"
       width="339.86572"
       height="139.74742"
       id="rect48838" />
    <rect
       x="177.75871"
       y="581.34924"
       width="423.71417"
       height="99.50016"
       id="rect45788" />
    <clipPath
       clipPathUnits="userSpaceOnUse"
       id="clipPath364">
      <rect
         style="fill:#fffcfc;stroke-width:1.50518"
         id="rect366"
         width="17.086435"
         height="14.512333"
         x="55.032528"
         y="19.913954" />
    </clipPath>
  </defs>
  <g
     inkscape:groupmode="layer"
     id="layer2"
     inkscape:label="Layer 2"
     transform="translate(-7.7417078,-8.9275208)">
    <rect
       style="fill:#f9fafb;fill-opacity:1;stroke:none;stroke-width:0.258832"
       id="rect4237"
       width="14.753431"
       height="14.753431"
       x="7.7417078"
       y="8.9275208"
       ry="0.79635078"
       rx="0.75443763" />
  </g>
  <g
     inkscape:label="Layer 1"
     inkscape:groupmode="layer"
     id="layer1"
     transform="translate(-64.165307,-20.24482)">
    <g
       aria-label="&amp;"
       transform="matrix(0.98365712,0,0,1.0166144,9.7510042,0)"
       id="text1178-4"
       style="font-size:15.9869px;line-height:1.25;stroke-width:0.333059"
       clip-path="url(#clipPath364)">
      <path
         d="m 64.825987,33.865712 q -0.447634,0.07993 -0.959214,0.09592 -0.495594,0.01599 -0.975201,-0.03197 -0.479607,-0.03197 -0.895267,-0.111909 -0.399672,-0.06395 -0.655463,-0.191842 -1.230991,-0.591516 -1.998362,-1.262966 -0.751385,-0.655462 -1.167044,-1.374873 -0.415659,-0.71941 -0.591515,-1.470795 -0.159869,-0.767371 -0.20783,-1.534742 -0.06395,-0.831319 0.143882,-1.662638 0.223817,-0.831319 0.591515,-1.582703 0.383686,-0.767371 0.863293,-1.406847 0.495594,-0.639476 0.991188,-1.119083 0.575528,-0.543555 1.199017,-1.071123 0.639476,-0.543554 1.390861,-1.103096 -0.01599,-0.207829 -0.04796,-0.367698 -0.01599,-0.159869 -0.04796,-0.319738 -0.03197,-0.175856 -0.07993,-0.383686 -0.03197,-0.20783 -0.04796,-0.511581 0,-0.127895 -0.03197,-0.46362 -0.03197,-0.351712 -0.04796,-0.831319 0,-0.495594 0.03197,-1.119083 0.03197,-0.623489 0.159869,-1.294939 0.07993,-0.399672 0.335725,-1.007174 0.271778,-0.62349 0.623489,-1.199018 0.367699,-0.575528 0.767372,-0.991188 0.399672,-0.415659 0.751384,-0.415659 0.175856,0 0.383686,0.223816 0.207829,0.20783 0.399672,0.575529 0.20783,0.351712 0.399673,0.815332 0.191842,0.447633 0.335724,0.92724 0.143883,0.479607 0.223817,0.943227 0.09592,0.46362 0.111908,0.815332 0.01599,0.831319 -0.06395,1.470795 -0.07993,0.623489 -0.239804,1.13507 -0.159869,0.495594 -0.383685,0.92724 -0.20783,0.415659 -0.447634,0.847306 -0.25579,0.431646 -0.527567,0.767371 -0.255791,0.319738 -0.527568,0.655463 -0.287764,0.351712 -0.607502,0.591515 -0.303751,0.223817 -0.607502,0.495594 0.143882,0.815332 0.25579,1.470795 0.04796,0.287764 0.09592,0.559541 0.04796,0.271778 0.07993,0.511581 0.03197,0.223817 0.06395,0.383686 0.03197,0.143882 0.03197,0.175856 0.383686,-0.04796 0.783358,0 0.41566,0.03197 0.783359,0.111908 0.383685,0.07994 0.671449,0.20783 0.303751,0.127895 0.479607,0.239803 0.863293,0.639476 1.215005,1.470795 0.367699,0.815332 0.431646,1.678625 0.04796,0.671449 -0.111908,1.342899 -0.159869,0.687437 -0.543555,1.294939 -0.367698,0.623489 -0.975201,1.13507 -0.591515,0.511581 -1.406847,0.847306 0.09592,0.655463 0.175856,1.215004 0.07993,0.479607 0.143882,0.92724 0.06395,0.463621 0.09592,0.639476 0.143883,0.959215 0.111909,1.566717 -0.03197,0.623489 -0.239804,1.007174 -0.175856,0.319738 -0.415659,0.62349 -0.223817,0.303751 -0.543555,0.543554 -0.319738,0.239804 -0.751384,0.399673 -0.415659,0.159869 -0.959214,0.191842 -0.415659,0.03197 -0.991188,-0.07993 -0.575528,-0.09592 -1.103096,-0.367699 -0.527568,-0.25579 -0.911253,-0.703423 -0.383686,-0.447634 -0.431647,-1.103096 -0.03197,-0.383686 0.04796,-0.783359 0.07993,-0.383685 0.271777,-0.703423 0.20783,-0.303751 0.527568,-0.511581 0.335725,-0.20783 0.815332,-0.239804 0.287764,-0.01599 0.575528,0.07993 0.303751,0.111908 0.559542,0.303751 0.25579,0.191843 0.415659,0.479607 0.159869,0.287764 0.191843,0.623489 0.04796,0.591516 -0.367699,1.13507 -0.415659,0.559542 -1.406847,0.831319 0.159869,0.223817 0.607502,0.415659 0.447634,0.20783 1.119083,0.20783 0.703424,0 1.3429,-0.415659 0.655463,-0.41566 1.007175,-1.039149 0.223816,-0.415659 0.223816,-1.087109 0,-0.655463 -0.07993,-1.326913 -0.03197,-0.111908 -0.09592,-0.559541 -0.06395,-0.431647 -0.143882,-0.911254 -0.07993,-0.559541 -0.191842,-1.246978 z m 0.335724,-20.255403 q -0.623489,0 -1.103096,0.591516 -0.46362,0.575528 -0.767371,1.470795 -0.287764,0.895266 -0.383685,1.966388 -0.09592,1.071123 0.04796,2.06231 0.527568,-0.399672 1.103096,-0.959214 0.575529,-0.575528 1.039149,-1.215004 0.479607,-0.639476 0.767371,-1.294939 0.303751,-0.655463 0.25579,-1.246978 -0.01599,-0.191843 -0.06395,-0.431646 -0.04796,-0.239804 -0.159869,-0.447634 -0.111908,-0.207829 -0.287764,-0.351711 -0.175856,-0.143883 -0.447634,-0.143883 z m -0.03197,19.59994 q 0.687436,-0.239803 1.071122,-0.623489 0.383686,-0.383686 0.559541,-0.831319 0.191843,-0.447633 0.20783,-0.895266 0.03197,-0.447633 0.01599,-0.799345 -0.03197,-0.287764 -0.143882,-0.719411 -0.09592,-0.431646 -0.383686,-0.831318 -0.287764,-0.399673 -0.815332,-0.655463 -0.527567,-0.271778 -1.406847,-0.223817 z m -1.310926,-5.547454 q -0.655463,0.03197 -1.087109,0.271777 -0.41566,0.223817 -0.67145,0.559542 -0.239804,0.319738 -0.335725,0.687436 -0.07993,0.367699 -0.06395,0.655463 0.01599,0.287764 0.127895,0.591516 0.111909,0.303751 0.287765,0.559541 0.191843,0.271777 0.399672,0.479607 0.223817,0.223817 0.447633,0.335725 -0.03197,0.03197 -0.06395,0.04796 -0.01599,0.03197 -0.04796,0.06395 -0.03197,0.03197 -0.04796,0.06395 -0.495593,-0.239804 -0.879279,-0.575529 -0.367699,-0.319738 -0.479607,-0.46362 -0.175856,-0.239803 -0.303751,-0.431646 -0.127895,-0.191843 -0.20783,-0.415659 -0.07993,-0.20783 -0.143882,-0.46362 -0.04796,-0.255791 -0.06395,-0.607503 -0.03197,-0.335725 0.04796,-0.703423 0.07993,-0.383686 0.25579,-0.767372 0.191843,-0.383685 0.479607,-0.735397 0.303752,-0.367699 0.703424,-0.687437 0.20783,-0.159869 0.367699,-0.25579 0.175856,-0.09592 0.319738,-0.159869 0.143882,-0.07993 0.287764,-0.111908 0.159869,-0.04796 0.335725,-0.09592 L 63.00348,22.610934 q -0.191843,0.111909 -0.623489,0.447634 -0.431647,0.335724 -0.943227,0.799345 -0.511581,0.46362 -1.023162,1.007174 -0.495594,0.527568 -0.815332,1.023162 -0.575528,0.911253 -0.895266,1.678624 -0.319738,0.767372 -0.239804,1.662638 0.06395,1.007175 0.607502,1.870467 0.559542,0.87928 1.422835,1.470795 0.863292,0.591516 1.966388,0.815332 1.103096,0.239804 2.286127,-0.04796 -0.25579,-1.582703 -0.46362,-2.829681 -0.09592,-0.527568 -0.175856,-1.039148 -0.07993,-0.511581 -0.159869,-0.911254 -0.06395,-0.399672 -0.09592,-0.639476 -0.03197,-0.25579 -0.03197,-0.25579 z"
         style="font-family:Maestro;-inkscape-font-specification:Maestro"
         id="path51886" />
    </g>
  </g>
</svg>
