<?xml version="1.0" encoding="UTF-8" standalone="no"?>
<!-- Created with Inkscape (http://www.inkscape.org/) -->

<svg
   width="304.64938"
   height="115.45222"
   viewBox="0 0 80.60515 30.546734"
   version="1.1"
   id="svg5"
   inkscape:version="1.2.2 (b0a8486, 2022-12-01)"
   sodipodi:docname="ensembles-black.svg"
   xmlns:inkscape="http://www.inkscape.org/namespaces/inkscape"
   xmlns:sodipodi="http://sodipodi.sourceforge.net/DTD/sodipodi-0.dtd"
   xmlns="http://www.w3.org/2000/svg"
   xmlns:svg="http://www.w3.org/2000/svg">
  <sodipodi:namedview
     id="namedview7"
     pagecolor="#ffffff"
     bordercolor="#666666"
     borderopacity="1.0"
     inkscape:pageshadow="2"
     inkscape:pageopacity="0.0"
     inkscape:pagecheckerboard="0"
     inkscape:document-units="mm"
     showgrid="false"
     inkscape:zoom="0.8944709"
     inkscape:cx="163.78398"
     inkscape:cy="82.171483"
     inkscape:window-width="1312"
     inkscape:window-height="919"
     inkscape:window-x="294"
     inkscape:window-y="25"
     inkscape:window-maximized="0"
     inkscape:current-layer="layer1"
     showguides="true"
     inkscape:guide-bbox="true"
     fit-margin-top="30"
     fit-margin-left="30"
     fit-margin-right="30"
     fit-margin-bottom="30"
     units="px"
     inkscape:showpageshadow="2"
     inkscape:deskcolor="#d1d1d1">
    <sodipodi:guide
       position="11.762975,-56.104908"
       orientation="0,-1"
       id="guide50678"
       inkscape:locked="false" />
  </sodipodi:namedview>
  <defs
     id="defs2">
    <rect
       x="194.52841"
       y="598.11896"
       width="339.86572"
       height="139.74742"
       id="rect48838" />
    <rect
       x="177.75871"
       y="581.34924"
       width="423.71417"
       height="99.50016"
       id="rect45788" />
  </defs>
  <g
     inkscape:label="Layer 1"
     inkscape:groupmode="layer"
     id="layer1"
     transform="translate(-56.423599,-11.317299)">
    <rect
       style="fill:#000000;fill-opacity:0;stroke-width:0.264583;stroke-opacity:0.992157"
       id="rect27271"
       width="58.863941"
       height="15.085734"
       x="32.537857"
       y="95.542976" />
    <g
       aria-label="&amp;"
       transform="scale(0.98365712,1.0166144)"
       id="text1178-4"
       style="font-size:15.9869px;line-height:1.25;stroke-width:0.333059">
      <path
         d="m 64.825987,33.865712 q -0.447634,0.07993 -0.959214,0.09592 -0.495594,0.01599 -0.975201,-0.03197 -0.479607,-0.03197 -0.895267,-0.111909 -0.399672,-0.06395 -0.655463,-0.191842 -1.230991,-0.591516 -1.998362,-1.262966 -0.751385,-0.655462 -1.167044,-1.374873 -0.415659,-0.71941 -0.591515,-1.470795 -0.159869,-0.767371 -0.20783,-1.534742 -0.06395,-0.831319 0.143882,-1.662638 0.223817,-0.831319 0.591515,-1.582703 0.383686,-0.767371 0.863293,-1.406847 0.495594,-0.639476 0.991188,-1.119083 0.575528,-0.543555 1.199017,-1.071123 0.639476,-0.543554 1.390861,-1.103096 -0.01599,-0.207829 -0.04796,-0.367698 -0.01599,-0.159869 -0.04796,-0.319738 -0.03197,-0.175856 -0.07993,-0.383686 -0.03197,-0.20783 -0.04796,-0.511581 0,-0.127895 -0.03197,-0.46362 -0.03197,-0.351712 -0.04796,-0.831319 0,-0.495594 0.03197,-1.119083 0.03197,-0.623489 0.159869,-1.294939 0.07993,-0.399672 0.335725,-1.007174 0.271778,-0.62349 0.623489,-1.199018 0.367699,-0.575528 0.767372,-0.991188 0.399672,-0.415659 0.751384,-0.415659 0.175856,0 0.383686,0.223816 0.207829,0.20783 0.399672,0.575529 0.20783,0.351712 0.399673,0.815332 0.191842,0.447633 0.335724,0.92724 0.143883,0.479607 0.223817,0.943227 0.09592,0.46362 0.111908,0.815332 0.01599,0.831319 -0.06395,1.470795 -0.07993,0.623489 -0.239804,1.13507 -0.159869,0.495594 -0.383685,0.92724 -0.20783,0.415659 -0.447634,0.847306 -0.25579,0.431646 -0.527567,0.767371 -0.255791,0.319738 -0.527568,0.655463 -0.287764,0.351712 -0.607502,0.591515 -0.303751,0.223817 -0.607502,0.495594 0.143882,0.815332 0.25579,1.470795 0.04796,0.287764 0.09592,0.559541 0.04796,0.271778 0.07993,0.511581 0.03197,0.223817 0.06395,0.383686 0.03197,0.143882 0.03197,0.175856 0.383686,-0.04796 0.783358,0 0.41566,0.03197 0.783359,0.111908 0.383685,0.07994 0.671449,0.20783 0.303751,0.127895 0.479607,0.239803 0.863293,0.639476 1.215005,1.470795 0.367699,0.815332 0.431646,1.678625 0.04796,0.671449 -0.111908,1.342899 -0.159869,0.687437 -0.543555,1.294939 -0.367698,0.623489 -0.975201,1.13507 -0.591515,0.511581 -1.406847,0.847306 0.09592,0.655463 0.175856,1.215004 0.07993,0.479607 0.143882,0.92724 0.06395,0.463621 0.09592,0.639476 0.143883,0.959215 0.111909,1.566717 -0.03197,0.623489 -0.239804,1.007174 -0.175856,0.319738 -0.415659,0.62349 -0.223817,0.303751 -0.543555,0.543554 -0.319738,0.239804 -0.751384,0.399673 -0.415659,0.159869 -0.959214,0.191842 -0.415659,0.03197 -0.991188,-0.07993 -0.575528,-0.09592 -1.103096,-0.367699 -0.527568,-0.25579 -0.911253,-0.703423 -0.383686,-0.447634 -0.431647,-1.103096 -0.03197,-0.383686 0.04796,-0.783359 0.07993,-0.383685 0.271777,-0.703423 0.20783,-0.303751 0.527568,-0.511581 0.335725,-0.20783 0.815332,-0.239804 0.287764,-0.01599 0.575528,0.07993 0.303751,0.111908 0.559542,0.303751 0.25579,0.191843 0.415659,0.479607 0.159869,0.287764 0.191843,0.623489 0.04796,0.591516 -0.367699,1.13507 -0.415659,0.559542 -1.406847,0.831319 0.159869,0.223817 0.607502,0.415659 0.447634,0.20783 1.119083,0.20783 0.703424,0 1.3429,-0.415659 0.655463,-0.41566 1.007175,-1.039149 0.223816,-0.415659 0.223816,-1.087109 0,-0.655463 -0.07993,-1.326913 -0.03197,-0.111908 -0.09592,-0.559541 -0.06395,-0.431647 -0.143882,-0.911254 -0.07993,-0.559541 -0.191842,-1.246978 z m 0.335724,-20.255403 q -0.623489,0 -1.103096,0.591516 -0.46362,0.575528 -0.767371,1.470795 -0.287764,0.895266 -0.383685,1.966388 -0.09592,1.071123 0.04796,2.06231 0.527568,-0.399672 1.103096,-0.959214 0.575529,-0.575528 1.039149,-1.215004 0.479607,-0.639476 0.767371,-1.294939 0.303751,-0.655463 0.25579,-1.246978 -0.01599,-0.191843 -0.06395,-0.431646 -0.04796,-0.239804 -0.159869,-0.447634 -0.111908,-0.207829 -0.287764,-0.351711 -0.175856,-0.143883 -0.447634,-0.143883 z m -0.03197,19.59994 q 0.687436,-0.239803 1.071122,-0.623489 0.383686,-0.383686 0.559541,-0.831319 0.191843,-0.447633 0.20783,-0.895266 0.03197,-0.447633 0.01599,-0.799345 -0.03197,-0.287764 -0.143882,-0.719411 -0.09592,-0.431646 -0.383686,-0.831318 -0.287764,-0.399673 -0.815332,-0.655463 -0.527567,-0.271778 -1.406847,-0.223817 z m -1.310926,-5.547454 q -0.655463,0.03197 -1.087109,0.271777 -0.41566,0.223817 -0.67145,0.559542 -0.239804,0.319738 -0.335725,0.687436 -0.07993,0.367699 -0.06395,0.655463 0.01599,0.287764 0.127895,0.591516 0.111909,0.303751 0.287765,0.559541 0.191843,0.271777 0.399672,0.479607 0.223817,0.223817 0.447633,0.335725 -0.03197,0.03197 -0.06395,0.04796 -0.01599,0.03197 -0.04796,0.06395 -0.03197,0.03197 -0.04796,0.06395 -0.495593,-0.239804 -0.879279,-0.575529 -0.367699,-0.319738 -0.479607,-0.46362 -0.175856,-0.239803 -0.303751,-0.431646 -0.127895,-0.191843 -0.20783,-0.415659 -0.07993,-0.20783 -0.143882,-0.46362 -0.04796,-0.255791 -0.06395,-0.607503 -0.03197,-0.335725 0.04796,-0.703423 0.07993,-0.383686 0.25579,-0.767372 0.191843,-0.383685 0.479607,-0.735397 0.303752,-0.367699 0.703424,-0.687437 0.20783,-0.159869 0.367699,-0.25579 0.175856,-0.09592 0.319738,-0.159869 0.143882,-0.07993 0.287764,-0.111908 0.159869,-0.04796 0.335725,-0.09592 L 63.00348,22.610934 q -0.191843,0.111909 -0.623489,0.447634 -0.431647,0.335724 -0.943227,0.799345 -0.511581,0.46362 -1.023162,1.007174 -0.495594,0.527568 -0.815332,1.023162 -0.575528,0.911253 -0.895266,1.678624 -0.319738,0.767372 -0.239804,1.662638 0.06395,1.007175 0.607502,1.870467 0.559542,0.87928 1.422835,1.470795 0.863292,0.591516 1.966388,0.815332 1.103096,0.239804 2.286127,-0.04796 -0.25579,-1.582703 -0.46362,-2.829681 -0.09592,-0.527568 -0.175856,-1.039148 -0.07993,-0.511581 -0.159869,-0.911254 -0.06395,-0.399672 -0.09592,-0.639476 -0.03197,-0.25579 -0.03197,-0.25579 z"
         style="font-family:Maestro;-inkscape-font-specification:Maestro"
         id="path51886" />
    </g>
    <g
       aria-label="Ensembles"
       id="text8972-6"
       style="font-size:14.8167px;line-height:1.25;stroke-width:0.264583">
      <path
         d="m 70.946847,25.141213 v 2.94453 h 3.501603 v 1.229902 h -3.501603 v 3.81993 h 4.803852 v 1.302249 h -6.250796 v -10.59886 h 6.330377 v 1.302249 z"
         style="font-family:'Trebuchet MS';-inkscape-font-specification:'Trebuchet MS'"
         id="path51907" />
      <path
         d="m 82.088311,34.437824 v -4.507228 q 0,-1.237137 -0.376206,-1.729098 -0.36897,-0.499195 -1.244371,-0.499195 -0.470257,0 -0.983921,0.282154 -0.513665,0.282154 -0.788585,0.694533 v 5.758834 h -1.374596 v -7.748381 h 0.940513 l 0.434083,0.99839 q 0.680064,-1.143085 2.221059,-1.143085 2.54662,0 2.54662,3.096459 v 4.796617 z"
         style="font-family:'Trebuchet MS';-inkscape-font-specification:'Trebuchet MS'"
         id="path51909" />
      <path
         d="m 84.917084,33.974802 0.484726,-1.302249 q 1.15032,0.752411 1.852087,0.752411 1.27331,0 1.27331,-1.070738 0,-0.76688 -1.229902,-1.316719 -0.947748,-0.434083 -1.280545,-0.658359 -0.325562,-0.224276 -0.571542,-0.50643 -0.238746,-0.289389 -0.361736,-0.607716 -0.115755,-0.325563 -0.115755,-0.694533 0,-0.954983 0.694532,-1.490352 0.694533,-0.535369 1.815914,-0.535369 0.846462,0 2.134242,0.535369 l -0.390675,1.27331 q -0.817523,-0.651124 -1.642281,-0.651124 -0.49196,0 -0.831992,0.231511 -0.332797,0.231511 -0.332797,0.586012 0,0.745176 0.846462,1.128616 l 0.983921,0.448552 q 0.90434,0.412379 1.316719,0.940513 0.412379,0.528135 0.412379,1.323954 0,1.041799 -0.730707,1.635046 -0.730706,0.586012 -2.025721,0.586012 -1.222667,0 -2.300639,-0.607717 z"
         style="font-family:'Trebuchet MS';-inkscape-font-specification:'Trebuchet MS'"
         id="path51911" />
      <path
         d="m 97.939575,30.697476 h -5.585201 q 0,1.360126 0.745176,2.090833 0.658359,0.636655 1.692923,0.636655 1.179259,0 1.967843,-0.687298 l 0.578778,0.991156 q -0.318328,0.318328 -0.976687,0.549838 -0.824758,0.303859 -1.837618,0.303859 -1.461413,0 -2.481508,-0.991157 -1.135851,-1.092442 -1.135851,-2.937295 0,-1.9172 1.16479,-3.074754 1.041799,-1.034565 2.467038,-1.034565 1.65675,0 2.597264,0.933279 0.911574,0.897105 0.911574,2.380222 0,0.455787 -0.108521,0.839227 z m -3.335204,-2.995173 q -0.918809,0 -1.540995,0.593247 -0.593247,0.564308 -0.672829,1.403535 h 4.290187 q 0,-0.831993 -0.520899,-1.389066 -0.571543,-0.607716 -1.555464,-0.607716 z"
         style="font-family:'Trebuchet MS';-inkscape-font-specification:'Trebuchet MS'"
         id="path51913" />
      <path
         d="m 108.45885,34.437824 v -4.905138 q 0,-1.830383 -1.5844,-1.830383 -0.49919,0 -0.93328,0.311093 -0.43408,0.303858 -0.59324,0.694533 v 5.729895 h -1.3746 v -5.505619 q 0,-0.571543 -0.43408,-0.897105 -0.42685,-0.332797 -1.13585,-0.332797 -0.41238,0 -0.88264,0.318327 -0.46302,0.318328 -0.65836,0.701768 v 5.715426 h -1.374595 v -7.748381 h 0.897105 l 0.45579,0.897104 q 0.79582,-1.041799 1.98954,-1.041799 1.66399,0 2.32958,1.034565 0.23151,-0.441318 0.86093,-0.737941 0.62942,-0.296624 1.29502,-0.296624 1.20096,0 1.85932,0.716237 0.65836,0.709002 0.65836,1.996782 v 5.180057 z"
         style="font-family:'Trebuchet MS';-inkscape-font-specification:'Trebuchet MS'"
         id="path51915" />
      <path
         d="m 112.95885,33.880751 -0.48473,0.701768 h -0.6873 V 23.513402 h 1.3746 v 3.747583 q 0.19534,-0.267684 0.7307,-0.491961 0.54261,-0.224276 1.06351,-0.224276 1.59164,0 2.57556,1.099677 0.99115,1.099677 0.99115,2.778131 0,1.938905 -0.99115,3.053051 -0.99116,1.106912 -2.68408,1.106912 -0.54984,0 -1.08521,-0.202572 -0.52813,-0.209807 -0.80305,-0.499196 z m 0.20257,-5.570732 v 4.471055 q 0,0.115756 0.51366,0.38344 0.51367,0.26045 0.78135,0.26045 1.40354,0 2.01125,-0.672829 0.60772,-0.672828 0.60772,-2.257231 0,-1.316719 -0.709,-2.05466 -0.709,-0.737941 -1.90997,-0.737941 -0.25321,0 -0.709,0.217041 -0.44855,0.217042 -0.58601,0.390675 z"
         style="font-family:'Trebuchet MS';-inkscape-font-specification:'Trebuchet MS'"
         id="path51917" />
      <path
         d="m 120.14292,32.245705 v -8.732303 h 1.3746 v 8.500792 q 0,0.622186 0.3545,0.983922 0.36173,0.354501 0.94051,0.354501 v 1.229902 q -2.66961,0 -2.66961,-2.336814 z"
         style="font-family:'Trebuchet MS';-inkscape-font-specification:'Trebuchet MS'"
         id="path51919" />
      <path
         d="m 130.92988,30.697476 h -5.5852 q 0,1.360126 0.74518,2.090833 0.65836,0.636655 1.69292,0.636655 1.17926,0 1.96785,-0.687298 l 0.57877,0.991156 q -0.31833,0.318328 -0.97668,0.549838 -0.82476,0.303859 -1.83762,0.303859 -1.46142,0 -2.48151,-0.991157 -1.13585,-1.092442 -1.13585,-2.937295 0,-1.9172 1.16479,-3.074754 1.0418,-1.034565 2.46704,-1.034565 1.65675,0 2.59726,0.933279 0.91157,0.897105 0.91157,2.380222 0,0.455787 -0.10852,0.839227 z m -3.3352,-2.995173 q -0.91881,0 -1.541,0.593247 -0.59324,0.564308 -0.67282,1.403535 h 4.29018 q 0,-0.831993 -0.5209,-1.389066 -0.57154,-0.607716 -1.55546,-0.607716 z"
         style="font-family:'Trebuchet MS';-inkscape-font-specification:'Trebuchet MS'"
         id="path51921" />
      <path
         d="m 131.97168,33.974802 0.48473,-1.302249 q 1.15032,0.752411 1.85209,0.752411 1.27331,0 1.27331,-1.070738 0,-0.76688 -1.2299,-1.316719 -0.94775,-0.434083 -1.28055,-0.658359 -0.32556,-0.224276 -0.57154,-0.50643 -0.23875,-0.289389 -0.36174,-0.607716 -0.11575,-0.325563 -0.11575,-0.694533 0,-0.954983 0.69453,-1.490352 0.69453,-0.535369 1.81591,-0.535369 0.84646,0 2.13424,0.535369 l -0.39067,1.27331 q -0.81752,-0.651124 -1.64228,-0.651124 -0.49196,0 -0.83199,0.231511 -0.3328,0.231511 -0.3328,0.586012 0,0.745176 0.84646,1.128616 l 0.98392,0.448552 q 0.90434,0.412379 1.31672,0.940513 0.41238,0.528135 0.41238,1.323954 0,1.041799 -0.73071,1.635046 -0.7307,0.586012 -2.02572,0.586012 -1.22266,0 -2.30064,-0.607717 z"
         style="font-family:'Trebuchet MS';-inkscape-font-specification:'Trebuchet MS'"
         id="path51923" />
    </g>
    <text
       xml:space="preserve"
       transform="scale(0.26458333)"
       id="text45786"
       style="font-style:normal;font-weight:normal;font-size:40px;line-height:1.25;font-family:sans-serif;white-space:pre;shape-inside:url(#rect45788);fill:#000000;fill-opacity:1;stroke:none" />
    <text
       xml:space="preserve"
       transform="scale(0.26458333)"
       id="text48836"
       style="font-style:normal;font-weight:normal;font-size:40px;line-height:1.25;font-family:sans-serif;white-space:pre;shape-inside:url(#rect48838);fill:#000000;fill-opacity:1;stroke:none" />
  </g>
</svg>
